<mxfile host="65bd71144e">
    <diagram id="aIZI33TAVfBhSstNvfGF" name="Page-1">
        <mxGraphModel dx="3797" dy="678" grid="1" gridSize="10" guides="1" tooltips="1" connect="1" arrows="1" fold="1" page="1" pageScale="1" pageWidth="2336" pageHeight="1654" math="0" shadow="0">
            <root>
                <mxCell id="0"/>
                <mxCell id="1" parent="0"/>
                <mxCell id="2" value="products" style="rounded=0;whiteSpace=wrap;html=1;" parent="1" vertex="1">
                    <mxGeometry x="755" y="470" width="120" height="60" as="geometry"/>
                </mxCell>
                <mxCell id="65" style="edgeStyle=none;html=1;" parent="1" source="3" target="11" edge="1">
                    <mxGeometry relative="1" as="geometry"/>
                </mxCell>
                <mxCell id="3" value="products_id" style="ellipse;whiteSpace=wrap;html=1;" parent="1" vertex="1">
                    <mxGeometry x="775" y="70" width="90" height="50" as="geometry"/>
                </mxCell>
                <mxCell id="46" style="edgeStyle=none;html=1;" parent="1" source="4" target="2" edge="1">
                    <mxGeometry relative="1" as="geometry"/>
                </mxCell>
                <mxCell id="4" value="date_of_manufacture" style="ellipse;whiteSpace=wrap;html=1;" parent="1" vertex="1">
                    <mxGeometry x="660" y="310" width="130" height="50" as="geometry"/>
                </mxCell>
                <mxCell id="49" style="edgeStyle=none;html=1;" parent="1" source="5" target="2" edge="1">
                    <mxGeometry relative="1" as="geometry"/>
                </mxCell>
                <mxCell id="5" value="shelf_life" style="ellipse;whiteSpace=wrap;html=1;" parent="1" vertex="1">
                    <mxGeometry x="610" y="520" width="100" height="50" as="geometry"/>
                </mxCell>
                <mxCell id="48" style="edgeStyle=none;html=1;" parent="1" source="6" target="2" edge="1">
                    <mxGeometry relative="1" as="geometry"/>
                </mxCell>
                <mxCell id="6" value="composition" style="ellipse;whiteSpace=wrap;html=1;" parent="1" vertex="1">
                    <mxGeometry x="600" y="440" width="110" height="50" as="geometry"/>
                </mxCell>
                <mxCell id="47" style="edgeStyle=none;html=1;" parent="1" source="7" target="2" edge="1">
                    <mxGeometry relative="1" as="geometry"/>
                </mxCell>
                <mxCell id="7" value="storage_temperature" style="ellipse;whiteSpace=wrap;html=1;" parent="1" vertex="1">
                    <mxGeometry x="570" y="380" width="130" height="50" as="geometry"/>
                </mxCell>
                <mxCell id="52" style="edgeStyle=none;html=1;" parent="1" source="8" target="2" edge="1">
                    <mxGeometry relative="1" as="geometry"/>
                </mxCell>
                <mxCell id="8" value="place_of_origin" style="ellipse;whiteSpace=wrap;html=1;" parent="1" vertex="1">
                    <mxGeometry x="830" y="350" width="130" height="50" as="geometry"/>
                </mxCell>
                <mxCell id="51" style="edgeStyle=none;html=1;" parent="1" source="9" target="2" edge="1">
                    <mxGeometry relative="1" as="geometry"/>
                </mxCell>
                <mxCell id="9" value="manufacturer_id&lt;span style=&quot;color: rgba(0, 0, 0, 0); font-family: monospace; font-size: 0px; text-align: start;&quot;&gt;%3CmxGraphModel%3E%3Croot%3E%3CmxCell%20id%3D%220%22%2F%3E%3CmxCell%20id%3D%221%22%20parent%3D%220%22%2F%3E%3CmxCell%20id%3D%222%22%20value%3D%22place_of_origin%22%20style%3D%22ellipse%3BwhiteSpace%3Dwrap%3Bhtml%3D1%3B%22%20vertex%3D%221%22%20parent%3D%221%22%3E%3CmxGeometry%20x%3D%22520%22%20y%3D%2290%22%20width%3D%22130%22%20height%3D%2250%22%20as%3D%22geometry%22%2F%3E%3C%2FmxCell%3E%3C%2Froot%3E%3C%2FmxGraphModel%3E&lt;/span&gt;" style="ellipse;whiteSpace=wrap;html=1;" parent="1" vertex="1">
                    <mxGeometry x="990" y="435" width="130" height="50" as="geometry"/>
                </mxCell>
                <mxCell id="50" style="edgeStyle=none;html=1;" parent="1" source="10" target="2" edge="1">
                    <mxGeometry relative="1" as="geometry"/>
                </mxCell>
                <mxCell id="10" value="importer_id" style="ellipse;whiteSpace=wrap;html=1;" parent="1" vertex="1">
                    <mxGeometry x="980" y="520" width="130" height="50" as="geometry"/>
                </mxCell>
                <mxCell id="11" value="food_products" style="rounded=0;whiteSpace=wrap;html=1;" parent="1" vertex="1">
                    <mxGeometry x="760" y="160" width="120" height="60" as="geometry"/>
                </mxCell>
                <mxCell id="13" value="drinks" style="rounded=0;whiteSpace=wrap;html=1;" parent="1" vertex="1">
                    <mxGeometry x="410" y="140" width="120" height="60" as="geometry"/>
                </mxCell>
                <mxCell id="61" style="edgeStyle=none;html=1;" parent="1" source="14" target="13" edge="1">
                    <mxGeometry relative="1" as="geometry"/>
                </mxCell>
                <mxCell id="14" value="products_id" style="ellipse;whiteSpace=wrap;html=1;" parent="1" vertex="1">
                    <mxGeometry x="330" y="220" width="90" height="50" as="geometry"/>
                </mxCell>
                <mxCell id="62" style="edgeStyle=none;html=1;" parent="1" source="15" target="13" edge="1">
                    <mxGeometry relative="1" as="geometry"/>
                </mxCell>
                <mxCell id="15" value="alcoholic(yes/no)" style="ellipse;whiteSpace=wrap;html=1;" parent="1" vertex="1">
                    <mxGeometry x="280" y="140" width="120" height="50" as="geometry"/>
                </mxCell>
                <mxCell id="63" style="edgeStyle=none;html=1;" parent="1" source="16" target="13" edge="1">
                    <mxGeometry relative="1" as="geometry"/>
                </mxCell>
                <mxCell id="16" value="carbonated(yes/no)" style="ellipse;whiteSpace=wrap;html=1;" parent="1" vertex="1">
                    <mxGeometry x="320" y="70" width="130" height="50" as="geometry"/>
                </mxCell>
                <mxCell id="64" style="edgeStyle=none;html=1;" parent="1" source="17" target="13" edge="1">
                    <mxGeometry relative="1" as="geometry"/>
                </mxCell>
                <mxCell id="17" value="percentage_of_alcohol(%)" style="ellipse;whiteSpace=wrap;html=1;" parent="1" vertex="1">
                    <mxGeometry x="480" y="60" width="160" height="50" as="geometry"/>
                </mxCell>
                <mxCell id="18" value="tobacco" style="rounded=0;whiteSpace=wrap;html=1;" parent="1" vertex="1">
                    <mxGeometry x="150" y="470" width="120" height="60" as="geometry"/>
                </mxCell>
                <mxCell id="57" style="edgeStyle=none;html=1;" parent="1" source="19" target="18" edge="1">
                    <mxGeometry relative="1" as="geometry"/>
                </mxCell>
                <mxCell id="19" value="nicotine(mg)" style="ellipse;whiteSpace=wrap;html=1;" parent="1" vertex="1">
                    <mxGeometry x="50" y="540" width="90" height="50" as="geometry"/>
                </mxCell>
                <mxCell id="56" style="edgeStyle=none;html=1;" parent="1" source="20" target="18" edge="1">
                    <mxGeometry relative="1" as="geometry"/>
                </mxCell>
                <mxCell id="20" value="tar(mg)" style="ellipse;whiteSpace=wrap;html=1;" parent="1" vertex="1">
                    <mxGeometry x="20" y="460" width="90" height="50" as="geometry"/>
                </mxCell>
                <mxCell id="55" style="edgeStyle=none;html=1;" parent="1" source="21" target="18" edge="1">
                    <mxGeometry relative="1" as="geometry"/>
                </mxCell>
                <mxCell id="21" value="carbon_monoxide(mg)" style="ellipse;whiteSpace=wrap;html=1;" parent="1" vertex="1">
                    <mxGeometry x="30" y="390" width="130" height="50" as="geometry"/>
                </mxCell>
                <mxCell id="54" style="edgeStyle=none;html=1;" parent="1" source="22" target="18" edge="1">
                    <mxGeometry relative="1" as="geometry"/>
                </mxCell>
                <mxCell id="22" value="nicotine(mg)" style="ellipse;whiteSpace=wrap;html=1;" parent="1" vertex="1">
                    <mxGeometry x="180" y="380" width="90" height="50" as="geometry"/>
                </mxCell>
                <mxCell id="58" style="edgeStyle=none;html=1;" parent="1" source="23" target="18" edge="1">
                    <mxGeometry relative="1" as="geometry"/>
                </mxCell>
                <mxCell id="23" value="cigaretes_per_piece" style="ellipse;whiteSpace=wrap;html=1;" parent="1" vertex="1">
                    <mxGeometry x="140" y="580" width="140" height="50" as="geometry"/>
                </mxCell>
                <mxCell id="59" style="edgeStyle=none;html=1;" parent="1" source="24" target="18" edge="1">
                    <mxGeometry relative="1" as="geometry"/>
                </mxCell>
                <mxCell id="24" value="pieces_in_box" style="ellipse;whiteSpace=wrap;html=1;" parent="1" vertex="1">
                    <mxGeometry x="290" y="530" width="140" height="50" as="geometry"/>
                </mxCell>
                <mxCell id="60" style="edgeStyle=none;html=1;" parent="1" source="25" target="18" edge="1">
                    <mxGeometry relative="1" as="geometry"/>
                </mxCell>
                <mxCell id="25" value="dry_tobacco" style="ellipse;whiteSpace=wrap;html=1;" parent="1" vertex="1">
                    <mxGeometry x="330" y="440" width="140" height="50" as="geometry"/>
                </mxCell>
                <mxCell id="27" value="milk_and_diary" style="rounded=0;whiteSpace=wrap;html=1;" parent="1" vertex="1">
                    <mxGeometry x="357.5" y="750" width="120" height="60" as="geometry"/>
                </mxCell>
                <mxCell id="53" style="edgeStyle=none;html=1;" parent="1" source="28" target="18" edge="1">
                    <mxGeometry relative="1" as="geometry"/>
                </mxCell>
                <mxCell id="28" value="products_id" style="ellipse;whiteSpace=wrap;html=1;" parent="1" vertex="1">
                    <mxGeometry x="290" y="385" width="90" height="50" as="geometry"/>
                </mxCell>
                <mxCell id="294" style="edgeStyle=none;html=1;" parent="1" source="29" target="27" edge="1">
                    <mxGeometry relative="1" as="geometry"/>
                </mxCell>
                <mxCell id="29" value="products_id" style="ellipse;whiteSpace=wrap;html=1;" parent="1" vertex="1">
                    <mxGeometry x="232.5" y="755" width="90" height="50" as="geometry"/>
                </mxCell>
                <mxCell id="30" value="confectionery" style="rounded=0;whiteSpace=wrap;html=1;" parent="1" vertex="1">
                    <mxGeometry x="620" y="690" width="120" height="60" as="geometry"/>
                </mxCell>
                <mxCell id="70" style="edgeStyle=none;html=1;" parent="1" source="31" target="30" edge="1">
                    <mxGeometry relative="1" as="geometry"/>
                </mxCell>
                <mxCell id="31" value="products_id" style="ellipse;whiteSpace=wrap;html=1;" parent="1" vertex="1">
                    <mxGeometry x="635" y="770" width="90" height="50" as="geometry"/>
                </mxCell>
                <mxCell id="32" value="cosmetics" style="rounded=0;whiteSpace=wrap;html=1;" parent="1" vertex="1">
                    <mxGeometry x="820" y="780" width="120" height="60" as="geometry"/>
                </mxCell>
                <mxCell id="71" style="edgeStyle=none;html=1;" parent="1" source="33" target="32" edge="1">
                    <mxGeometry relative="1" as="geometry"/>
                </mxCell>
                <mxCell id="33" value="products_id" style="ellipse;whiteSpace=wrap;html=1;" parent="1" vertex="1">
                    <mxGeometry x="835" y="860" width="90" height="50" as="geometry"/>
                </mxCell>
                <mxCell id="34" value="household" style="rounded=0;whiteSpace=wrap;html=1;" parent="1" vertex="1">
                    <mxGeometry x="1080" y="215" width="120" height="60" as="geometry"/>
                </mxCell>
                <mxCell id="66" style="edgeStyle=none;html=1;" parent="1" source="35" target="34" edge="1">
                    <mxGeometry relative="1" as="geometry"/>
                </mxCell>
                <mxCell id="35" value="product_Id" style="ellipse;whiteSpace=wrap;html=1;" parent="1" vertex="1">
                    <mxGeometry x="1000" y="130" width="130" height="50" as="geometry"/>
                </mxCell>
                <mxCell id="67" style="edgeStyle=none;html=1;" parent="1" source="36" target="34" edge="1">
                    <mxGeometry relative="1" as="geometry"/>
                </mxCell>
                <mxCell id="36" value="category" style="ellipse;whiteSpace=wrap;html=1;" parent="1" vertex="1">
                    <mxGeometry x="1168" y="130" width="130" height="50" as="geometry"/>
                </mxCell>
                <mxCell id="37" value="" style="endArrow=none;html=1;startArrow=none;" parent="1" source="82" target="11" edge="1">
                    <mxGeometry width="50" height="50" relative="1" as="geometry">
                        <mxPoint x="820" y="360" as="sourcePoint"/>
                        <mxPoint x="870" y="310" as="targetPoint"/>
                    </mxGeometry>
                </mxCell>
                <mxCell id="38" value="" style="endArrow=none;html=1;startArrow=none;" parent="1" source="84" target="34" edge="1">
                    <mxGeometry width="50" height="50" relative="1" as="geometry">
                        <mxPoint x="825.483870967742" y="480" as="sourcePoint"/>
                        <mxPoint x="829.5161290322578" y="230" as="targetPoint"/>
                    </mxGeometry>
                </mxCell>
                <mxCell id="39" value="" style="endArrow=none;html=1;startArrow=none;" parent="1" source="80" target="13" edge="1">
                    <mxGeometry width="50" height="50" relative="1" as="geometry">
                        <mxPoint x="863.2352941176468" y="480" as="sourcePoint"/>
                        <mxPoint x="1111.7647058823527" y="285" as="targetPoint"/>
                    </mxGeometry>
                </mxCell>
                <mxCell id="40" value="" style="endArrow=none;html=1;exitX=0;exitY=0.5;exitDx=0;exitDy=0;startArrow=none;" parent="1" source="72" target="18" edge="1">
                    <mxGeometry width="50" height="50" relative="1" as="geometry">
                        <mxPoint x="793.6363636363635" y="480" as="sourcePoint"/>
                        <mxPoint x="511.36363636363626" y="210" as="targetPoint"/>
                    </mxGeometry>
                </mxCell>
                <mxCell id="41" value="" style="endArrow=none;html=1;startArrow=none;" parent="1" source="73" target="27" edge="1">
                    <mxGeometry width="50" height="50" relative="1" as="geometry">
                        <mxPoint x="765" y="510" as="sourcePoint"/>
                        <mxPoint x="279.9999999999998" y="510" as="targetPoint"/>
                    </mxGeometry>
                </mxCell>
                <mxCell id="42" value="" style="endArrow=none;html=1;startArrow=none;" parent="1" source="76" target="30" edge="1">
                    <mxGeometry width="50" height="50" relative="1" as="geometry">
                        <mxPoint x="782.4107142857142" y="540" as="sourcePoint"/>
                        <mxPoint x="470.08928571428555" y="760" as="targetPoint"/>
                    </mxGeometry>
                </mxCell>
                <mxCell id="44" value="" style="endArrow=none;html=1;startArrow=none;" parent="1" source="78" target="32" edge="1">
                    <mxGeometry width="50" height="50" relative="1" as="geometry">
                        <mxPoint x="812.6146788990825" y="540" as="sourcePoint"/>
                        <mxPoint x="702.3853211009173" y="807" as="targetPoint"/>
                    </mxGeometry>
                </mxCell>
                <mxCell id="74" value="" style="endArrow=none;html=1;" parent="1" source="2" target="73" edge="1">
                    <mxGeometry width="50" height="50" relative="1" as="geometry">
                        <mxPoint x="772.4107142857144" y="529.9999999999998" as="sourcePoint"/>
                        <mxPoint x="460.0892857142858" y="750" as="targetPoint"/>
                    </mxGeometry>
                </mxCell>
                <mxCell id="73" value="1 - 1" style="text;strokeColor=none;align=center;fillColor=none;html=1;verticalAlign=middle;whiteSpace=wrap;rounded=0;" parent="1" vertex="1">
                    <mxGeometry x="550" y="650" width="60" height="30" as="geometry"/>
                </mxCell>
                <mxCell id="75" value="" style="endArrow=none;html=1;exitX=0;exitY=0.5;exitDx=0;exitDy=0;" parent="1" source="2" target="72" edge="1">
                    <mxGeometry width="50" height="50" relative="1" as="geometry">
                        <mxPoint x="755" y="499.9999999999998" as="sourcePoint"/>
                        <mxPoint x="270" y="499.9999999999998" as="targetPoint"/>
                    </mxGeometry>
                </mxCell>
                <mxCell id="72" value="1 - 1" style="text;strokeColor=none;align=center;fillColor=none;html=1;verticalAlign=middle;whiteSpace=wrap;rounded=0;" parent="1" vertex="1">
                    <mxGeometry x="490" y="485" width="60" height="30" as="geometry"/>
                </mxCell>
                <mxCell id="77" value="" style="endArrow=none;html=1;" parent="1" source="2" target="76" edge="1">
                    <mxGeometry width="50" height="50" relative="1" as="geometry">
                        <mxPoint x="796.5909090909092" y="529.9999999999998" as="sourcePoint"/>
                        <mxPoint x="698.409090909091" y="690" as="targetPoint"/>
                    </mxGeometry>
                </mxCell>
                <mxCell id="76" value="1 - 1" style="text;strokeColor=none;align=center;fillColor=none;html=1;verticalAlign=middle;whiteSpace=wrap;rounded=0;" parent="1" vertex="1">
                    <mxGeometry x="715" y="620" width="60" height="30" as="geometry"/>
                </mxCell>
                <mxCell id="79" value="" style="endArrow=none;html=1;" parent="1" source="2" target="78" edge="1">
                    <mxGeometry width="50" height="50" relative="1" as="geometry">
                        <mxPoint x="821.2903225806454" y="529.9999999999998" as="sourcePoint"/>
                        <mxPoint x="873.7096774193549" y="780" as="targetPoint"/>
                    </mxGeometry>
                </mxCell>
                <mxCell id="78" value="1 - 1" style="text;strokeColor=none;align=center;fillColor=none;html=1;verticalAlign=middle;whiteSpace=wrap;rounded=0;" parent="1" vertex="1">
                    <mxGeometry x="820" y="630" width="60" height="30" as="geometry"/>
                </mxCell>
                <mxCell id="81" value="" style="endArrow=none;html=1;" parent="1" source="2" target="80" edge="1">
                    <mxGeometry width="50" height="50" relative="1" as="geometry">
                        <mxPoint x="783.6363636363637" y="470" as="sourcePoint"/>
                        <mxPoint x="501.3636363636365" y="200" as="targetPoint"/>
                    </mxGeometry>
                </mxCell>
                <mxCell id="80" value="1 - 1" style="text;strokeColor=none;align=center;fillColor=none;html=1;verticalAlign=middle;whiteSpace=wrap;rounded=0;" parent="1" vertex="1">
                    <mxGeometry x="560" y="270" width="60" height="30" as="geometry"/>
                </mxCell>
                <mxCell id="83" value="" style="endArrow=none;html=1;" parent="1" source="2" target="82" edge="1">
                    <mxGeometry width="50" height="50" relative="1" as="geometry">
                        <mxPoint x="815.483870967742" y="470" as="sourcePoint"/>
                        <mxPoint x="819.516129032258" y="220" as="targetPoint"/>
                    </mxGeometry>
                </mxCell>
                <mxCell id="82" value="1 - 1" style="text;strokeColor=none;align=center;fillColor=none;html=1;verticalAlign=middle;whiteSpace=wrap;rounded=0;" parent="1" vertex="1">
                    <mxGeometry x="785" y="280" width="60" height="30" as="geometry"/>
                </mxCell>
                <mxCell id="85" value="" style="endArrow=none;html=1;" parent="1" source="2" target="84" edge="1">
                    <mxGeometry width="50" height="50" relative="1" as="geometry">
                        <mxPoint x="853.2352941176471" y="470" as="sourcePoint"/>
                        <mxPoint x="1101.7647058823527" y="275" as="targetPoint"/>
                    </mxGeometry>
                </mxCell>
                <mxCell id="84" value="1 - 1" style="text;strokeColor=none;align=center;fillColor=none;html=1;verticalAlign=middle;whiteSpace=wrap;rounded=0;" parent="1" vertex="1">
                    <mxGeometry x="990" y="330" width="60" height="30" as="geometry"/>
                </mxCell>
                <mxCell id="87" value="administrators" style="rounded=0;whiteSpace=wrap;html=1;" parent="1" vertex="1">
                    <mxGeometry x="1095" y="1170" width="120" height="60" as="geometry"/>
                </mxCell>
                <mxCell id="89" value="" style="endArrow=none;html=1;startArrow=none;" parent="1" source="93" target="2" edge="1">
                    <mxGeometry width="50" height="50" relative="1" as="geometry">
                        <mxPoint x="940" y="720" as="sourcePoint"/>
                        <mxPoint x="990" y="670" as="targetPoint"/>
                    </mxGeometry>
                </mxCell>
                <mxCell id="90" value="" style="endArrow=none;html=1;startArrow=none;" parent="1" source="88" target="91" edge="1">
                    <mxGeometry width="50" height="50" relative="1" as="geometry">
                        <mxPoint x="1236.7073170731705" y="880.0000000000002" as="sourcePoint"/>
                        <mxPoint x="848.2926829268292" y="529.9999999999998" as="targetPoint"/>
                    </mxGeometry>
                </mxCell>
                <mxCell id="91" value="administrator_products" style="rhombus;whiteSpace=wrap;html=1;" parent="1" vertex="1">
                    <mxGeometry x="1030" y="860" width="160" height="80" as="geometry"/>
                </mxCell>
                <mxCell id="92" value="" style="endArrow=none;html=1;" parent="1" source="87" target="88" edge="1">
                    <mxGeometry width="50" height="50" relative="1" as="geometry">
                        <mxPoint x="1240" y="880.0000000000002" as="sourcePoint"/>
                        <mxPoint x="1106.666666666667" y="746.6666666666667" as="targetPoint"/>
                    </mxGeometry>
                </mxCell>
                <mxCell id="88" value="M" style="text;strokeColor=none;align=center;fillColor=none;html=1;verticalAlign=middle;whiteSpace=wrap;rounded=0;" parent="1" vertex="1">
                    <mxGeometry x="1100" y="1010" width="60" height="30" as="geometry"/>
                </mxCell>
                <mxCell id="94" value="" style="endArrow=none;html=1;startArrow=none;" parent="1" source="91" target="93" edge="1">
                    <mxGeometry width="50" height="50" relative="1" as="geometry">
                        <mxPoint x="1049.9290780141846" y="695.0354609929077" as="sourcePoint"/>
                        <mxPoint x="851.1363636363637" y="529.9999999999998" as="targetPoint"/>
                    </mxGeometry>
                </mxCell>
                <mxCell id="93" value="M" style="text;strokeColor=none;align=center;fillColor=none;html=1;verticalAlign=middle;whiteSpace=wrap;rounded=0;" parent="1" vertex="1">
                    <mxGeometry x="980" y="710" width="60" height="30" as="geometry"/>
                </mxCell>
                <mxCell id="97" style="edgeStyle=none;html=1;" parent="1" source="95" target="91" edge="1">
                    <mxGeometry relative="1" as="geometry"/>
                </mxCell>
                <mxCell id="95" value="products_id" style="ellipse;whiteSpace=wrap;html=1;" parent="1" vertex="1">
                    <mxGeometry x="1123" y="760" width="90" height="50" as="geometry"/>
                </mxCell>
                <mxCell id="98" style="edgeStyle=none;html=1;" parent="1" source="96" target="91" edge="1">
                    <mxGeometry relative="1" as="geometry"/>
                </mxCell>
                <mxCell id="96" value="administrator_id" style="ellipse;whiteSpace=wrap;html=1;" parent="1" vertex="1">
                    <mxGeometry x="1208" y="827" width="90" height="50" as="geometry"/>
                </mxCell>
                <mxCell id="100" value="buyers" style="rounded=0;whiteSpace=wrap;html=1;" parent="1" vertex="1">
                    <mxGeometry x="1730" y="280" width="120" height="60" as="geometry"/>
                </mxCell>
                <mxCell id="101" value="" style="endArrow=none;html=1;startArrow=none;entryX=0;entryY=0.5;entryDx=0;entryDy=0;" parent="1" source="104" target="169" edge="1">
                    <mxGeometry width="50" height="50" relative="1" as="geometry">
                        <mxPoint x="1340" y="590" as="sourcePoint"/>
                        <mxPoint x="1280" y="510" as="targetPoint"/>
                    </mxGeometry>
                </mxCell>
                <mxCell id="102" value="" style="endArrow=none;html=1;exitX=1;exitY=0.5;exitDx=0;exitDy=0;startArrow=none;" parent="1" source="106" target="100" edge="1">
                    <mxGeometry width="50" height="50" relative="1" as="geometry">
                        <mxPoint x="1420" y="500" as="sourcePoint"/>
                        <mxPoint x="1360" y="510" as="targetPoint"/>
                    </mxGeometry>
                </mxCell>
                <mxCell id="105" value="" style="endArrow=none;html=1;" parent="1" source="2" target="104" edge="1">
                    <mxGeometry width="50" height="50" relative="1" as="geometry">
                        <mxPoint x="875" y="500" as="sourcePoint"/>
                        <mxPoint x="1280" y="500" as="targetPoint"/>
                    </mxGeometry>
                </mxCell>
                <mxCell id="104" value="M" style="text;strokeColor=none;align=center;fillColor=none;html=1;verticalAlign=middle;whiteSpace=wrap;rounded=0;" parent="1" vertex="1">
                    <mxGeometry x="1110" y="490" width="60" height="30" as="geometry"/>
                </mxCell>
                <mxCell id="107" value="" style="endArrow=none;html=1;exitX=1;exitY=0.5;exitDx=0;exitDy=0;" parent="1" source="169" target="106" edge="1">
                    <mxGeometry width="50" height="50" relative="1" as="geometry">
                        <mxPoint x="1400" y="500" as="sourcePoint"/>
                        <mxPoint x="1650" y="500" as="targetPoint"/>
                    </mxGeometry>
                </mxCell>
                <mxCell id="106" value="M" style="text;strokeColor=none;align=center;fillColor=none;html=1;verticalAlign=middle;whiteSpace=wrap;rounded=0;" parent="1" vertex="1">
                    <mxGeometry x="1530" y="410" width="60" height="30" as="geometry"/>
                </mxCell>
                <mxCell id="110" style="edgeStyle=none;html=1;entryX=0.375;entryY=0.15;entryDx=0;entryDy=0;entryPerimeter=0;" parent="1" source="109" target="169" edge="1">
                    <mxGeometry relative="1" as="geometry">
                        <mxPoint x="1312" y="470" as="targetPoint"/>
                    </mxGeometry>
                </mxCell>
                <mxCell id="109" value="products_id" style="ellipse;whiteSpace=wrap;html=1;" parent="1" vertex="1">
                    <mxGeometry x="1225" y="400" width="90" height="50" as="geometry"/>
                </mxCell>
                <mxCell id="112" style="edgeStyle=none;html=1;" parent="1" source="111" target="169" edge="1">
                    <mxGeometry relative="1" as="geometry">
                        <mxPoint x="1362" y="470" as="targetPoint"/>
                    </mxGeometry>
                </mxCell>
                <mxCell id="111" value="buyer_id" style="ellipse;whiteSpace=wrap;html=1;" parent="1" vertex="1">
                    <mxGeometry x="1350" y="400" width="90" height="50" as="geometry"/>
                </mxCell>
                <mxCell id="113" value="supliers" style="rounded=0;whiteSpace=wrap;html=1;" parent="1" vertex="1">
                    <mxGeometry x="2080" y="1110" width="120" height="60" as="geometry"/>
                </mxCell>
                <mxCell id="114" value="orders" style="rounded=0;whiteSpace=wrap;html=1;" parent="1" vertex="1">
                    <mxGeometry x="1510" y="807" width="120" height="60" as="geometry"/>
                </mxCell>
                <mxCell id="126" style="edgeStyle=none;html=1;" parent="1" source="115" target="114" edge="1">
                    <mxGeometry relative="1" as="geometry"/>
                </mxCell>
                <mxCell id="115" value="administrator_id" style="ellipse;whiteSpace=wrap;html=1;" parent="1" vertex="1">
                    <mxGeometry x="1380" y="835" width="110" height="50" as="geometry"/>
                </mxCell>
                <mxCell id="127" style="edgeStyle=none;html=1;" parent="1" source="116" target="114" edge="1">
                    <mxGeometry relative="1" as="geometry"/>
                </mxCell>
                <mxCell id="116" value="order_date" style="ellipse;whiteSpace=wrap;html=1;" parent="1" vertex="1">
                    <mxGeometry x="1520" y="905" width="90" height="50" as="geometry"/>
                </mxCell>
                <mxCell id="129" style="edgeStyle=none;html=1;" parent="1" source="117" target="114" edge="1">
                    <mxGeometry relative="1" as="geometry"/>
                </mxCell>
                <mxCell id="117" value="date_of_approval" style="ellipse;whiteSpace=wrap;html=1;" parent="1" vertex="1">
                    <mxGeometry x="1650" y="760" width="130" height="50" as="geometry"/>
                </mxCell>
                <mxCell id="125" style="edgeStyle=none;html=1;" parent="1" source="119" target="114" edge="1">
                    <mxGeometry relative="1" as="geometry"/>
                </mxCell>
                <mxCell id="119" value="delivery_date" style="ellipse;whiteSpace=wrap;html=1;" parent="1" vertex="1">
                    <mxGeometry x="1380" y="757" width="130" height="50" as="geometry"/>
                </mxCell>
                <mxCell id="120" value="" style="endArrow=none;html=1;" parent="1" source="87" target="114" edge="1">
                    <mxGeometry width="50" height="50" relative="1" as="geometry">
                        <mxPoint x="1570" y="770" as="sourcePoint"/>
                        <mxPoint x="1620" y="720" as="targetPoint"/>
                    </mxGeometry>
                </mxCell>
                <mxCell id="121" value="" style="endArrow=none;html=1;startArrow=none;" parent="1" source="173" target="114" edge="1">
                    <mxGeometry width="50" height="50" relative="1" as="geometry">
                        <mxPoint x="1470.1851851851852" y="690" as="sourcePoint"/>
                        <mxPoint x="1560" y="920" as="targetPoint"/>
                    </mxGeometry>
                </mxCell>
                <mxCell id="122" value="" style="endArrow=none;html=1;startArrow=none;" parent="1" source="167" target="114" edge="1">
                    <mxGeometry width="50" height="50" relative="1" as="geometry">
                        <mxPoint x="1369.7560975609758" y="540" as="sourcePoint"/>
                        <mxPoint x="1600.2439024390242" y="890" as="targetPoint"/>
                    </mxGeometry>
                </mxCell>
                <mxCell id="128" style="edgeStyle=none;html=1;" parent="1" source="123" target="114" edge="1">
                    <mxGeometry relative="1" as="geometry"/>
                </mxCell>
                <mxCell id="123" value="shopping_cart_id" style="ellipse;whiteSpace=wrap;html=1;" parent="1" vertex="1">
                    <mxGeometry x="1630" y="885" width="130" height="50" as="geometry"/>
                </mxCell>
                <mxCell id="133" value="" style="endArrow=none;html=1;startArrow=none;" parent="1" source="165" edge="1">
                    <mxGeometry width="50" height="50" relative="1" as="geometry">
                        <mxPoint x="2120" y="839.7049180327867" as="sourcePoint"/>
                        <mxPoint x="1810" y="1140" as="targetPoint"/>
                    </mxGeometry>
                </mxCell>
                <mxCell id="142" style="edgeStyle=none;html=1;" parent="1" source="134" target="176" edge="1">
                    <mxGeometry relative="1" as="geometry">
                        <mxPoint x="1712" y="1170" as="targetPoint"/>
                    </mxGeometry>
                </mxCell>
                <mxCell id="134" value="suplier_id&lt;span style=&quot;color: rgba(0, 0, 0, 0); font-family: monospace; font-size: 0px; text-align: start;&quot;&gt;%3CmxGraphModel%3E%3Croot%3E%3CmxCell%20id%3D%220%22%2F%3E%3CmxCell%20id%3D%221%22%20parent%3D%220%22%2F%3E%3CmxCell%20id%3D%222%22%20value%3D%22administrator_id%22%20style%3D%22ellipse%3BwhiteSpace%3Dwrap%3Bhtml%3D1%3B%22%20vertex%3D%221%22%20parent%3D%221%22%3E%3CmxGeometry%20x%3D%221380%22%20y%3D%22835%22%20width%3D%22110%22%20height%3D%2250%22%20as%3D%22geometry%22%2F%3E%3C%2FmxCell%3E%3C%2Froot%3E%3C%2FmxGraphModel%3E&lt;/span&gt;" style="ellipse;whiteSpace=wrap;html=1;" parent="1" vertex="1">
                    <mxGeometry x="1600" y="1190" width="110" height="50" as="geometry"/>
                </mxCell>
                <mxCell id="141" style="edgeStyle=none;html=1;" parent="1" source="135" edge="1">
                    <mxGeometry relative="1" as="geometry">
                        <mxPoint x="1762.6315789473683" y="1170" as="targetPoint"/>
                    </mxGeometry>
                </mxCell>
                <mxCell id="135" value="order_id" style="ellipse;whiteSpace=wrap;html=1;" parent="1" vertex="1">
                    <mxGeometry x="1735" y="1210" width="110" height="50" as="geometry"/>
                </mxCell>
                <mxCell id="143" style="edgeStyle=none;html=1;" parent="1" source="136" target="176" edge="1">
                    <mxGeometry relative="1" as="geometry">
                        <mxPoint x="1690" y="1141.9354838709676" as="targetPoint"/>
                    </mxGeometry>
                </mxCell>
                <mxCell id="136" value="delivery_status" style="ellipse;whiteSpace=wrap;html=1;" parent="1" vertex="1">
                    <mxGeometry x="1540" y="1120" width="110" height="50" as="geometry"/>
                </mxCell>
                <mxCell id="144" style="edgeStyle=none;html=1;" parent="1" source="137" target="176" edge="1">
                    <mxGeometry relative="1" as="geometry">
                        <mxPoint x="1692.3076923076924" y="1110" as="targetPoint"/>
                    </mxGeometry>
                </mxCell>
                <mxCell id="137" value="delivery_time" style="ellipse;whiteSpace=wrap;html=1;" parent="1" vertex="1">
                    <mxGeometry x="1570" y="1050" width="110" height="50" as="geometry"/>
                </mxCell>
                <mxCell id="177" style="edgeStyle=none;html=1;" parent="1" source="138" target="176" edge="1">
                    <mxGeometry relative="1" as="geometry"/>
                </mxCell>
                <mxCell id="138" value="buyer_rating" style="ellipse;whiteSpace=wrap;html=1;" parent="1" vertex="1">
                    <mxGeometry x="1790" y="1040" width="110" height="50" as="geometry"/>
                </mxCell>
                <mxCell id="140" style="edgeStyle=none;html=1;" parent="1" source="139" target="176" edge="1">
                    <mxGeometry relative="1" as="geometry">
                        <mxPoint x="1810" y="1154.4827586206895" as="targetPoint"/>
                    </mxGeometry>
                </mxCell>
                <mxCell id="139" value="comment" style="ellipse;whiteSpace=wrap;html=1;" parent="1" vertex="1">
                    <mxGeometry x="1830" y="1170" width="110" height="50" as="geometry"/>
                </mxCell>
                <mxCell id="146" value="" style="endArrow=none;html=1;startArrow=none;" parent="1" source="180" edge="1">
                    <mxGeometry width="50" height="50" relative="1" as="geometry">
                        <mxPoint x="1760" y="750" as="sourcePoint"/>
                        <mxPoint x="1738.6516853932585" y="600" as="targetPoint"/>
                    </mxGeometry>
                </mxCell>
                <mxCell id="183" style="edgeStyle=none;html=1;" parent="1" source="147" target="175" edge="1">
                    <mxGeometry relative="1" as="geometry"/>
                </mxCell>
                <mxCell id="147" value="order_id" style="ellipse;whiteSpace=wrap;html=1;" parent="1" vertex="1">
                    <mxGeometry x="1820" y="500" width="110" height="50" as="geometry"/>
                </mxCell>
                <mxCell id="182" style="edgeStyle=none;html=1;" parent="1" source="148" target="175" edge="1">
                    <mxGeometry relative="1" as="geometry"/>
                </mxCell>
                <mxCell id="148" value="delivery_time" style="ellipse;whiteSpace=wrap;html=1;" parent="1" vertex="1">
                    <mxGeometry x="1740" y="620" width="110" height="50" as="geometry"/>
                </mxCell>
                <mxCell id="185" style="edgeStyle=none;html=1;" parent="1" source="149" target="175" edge="1">
                    <mxGeometry relative="1" as="geometry"/>
                </mxCell>
                <mxCell id="149" value="rating" style="ellipse;whiteSpace=wrap;html=1;" parent="1" vertex="1">
                    <mxGeometry x="1600" y="590" width="90" height="50" as="geometry"/>
                </mxCell>
                <mxCell id="184" style="edgeStyle=none;html=1;" parent="1" source="150" target="175" edge="1">
                    <mxGeometry relative="1" as="geometry"/>
                </mxCell>
                <mxCell id="150" value="comment" style="ellipse;whiteSpace=wrap;html=1;" parent="1" vertex="1">
                    <mxGeometry x="1625" y="495" width="90" height="50" as="geometry"/>
                </mxCell>
                <mxCell id="151" value="" style="endArrow=none;html=1;startArrow=none;" parent="1" source="178" target="100" edge="1">
                    <mxGeometry width="50" height="50" relative="1" as="geometry">
                        <mxPoint x="1772.4" y="420" as="sourcePoint"/>
                        <mxPoint x="1660" y="510" as="targetPoint"/>
                    </mxGeometry>
                </mxCell>
                <mxCell id="166" value="" style="endArrow=none;html=1;" parent="1" source="113" target="165" edge="1">
                    <mxGeometry width="50" height="50" relative="1" as="geometry">
                        <mxPoint x="2080" y="1140" as="sourcePoint"/>
                        <mxPoint x="1810" y="1140" as="targetPoint"/>
                    </mxGeometry>
                </mxCell>
                <mxCell id="165" value="M" style="text;strokeColor=none;align=center;fillColor=none;html=1;verticalAlign=middle;whiteSpace=wrap;rounded=0;" parent="1" vertex="1">
                    <mxGeometry x="1940" y="1125" width="60" height="30" as="geometry"/>
                </mxCell>
                <mxCell id="168" value="" style="endArrow=none;html=1;startArrow=none;" parent="1" target="167" edge="1">
                    <mxGeometry width="50" height="50" relative="1" as="geometry">
                        <mxPoint x="1730.7999999999997" y="1110" as="sourcePoint"/>
                        <mxPoint x="1587.8217821782182" y="867" as="targetPoint"/>
                    </mxGeometry>
                </mxCell>
                <mxCell id="167" value="M" style="text;strokeColor=none;align=center;fillColor=none;html=1;verticalAlign=middle;whiteSpace=wrap;rounded=0;" parent="1" vertex="1">
                    <mxGeometry x="1640" y="1000" width="60" height="30" as="geometry"/>
                </mxCell>
                <mxCell id="169" value="shopping_cart" style="rhombus;whiteSpace=wrap;html=1;" parent="1" vertex="1">
                    <mxGeometry x="1255" y="465" width="160" height="80" as="geometry"/>
                </mxCell>
                <mxCell id="174" value="" style="endArrow=none;html=1;startArrow=none;" parent="1" source="169" target="173" edge="1">
                    <mxGeometry width="50" height="50" relative="1" as="geometry">
                        <mxPoint x="1355.9121245828696" y="534.543937708565" as="sourcePoint"/>
                        <mxPoint x="1548.765060240964" y="807" as="targetPoint"/>
                    </mxGeometry>
                </mxCell>
                <mxCell id="173" value="M" style="text;strokeColor=none;align=center;fillColor=none;html=1;verticalAlign=middle;whiteSpace=wrap;rounded=0;" parent="1" vertex="1">
                    <mxGeometry x="1400" y="630" width="60" height="30" as="geometry"/>
                </mxCell>
                <mxCell id="175" value="order_buyer" style="rhombus;whiteSpace=wrap;html=1;" parent="1" vertex="1">
                    <mxGeometry x="1680" y="530" width="160" height="80" as="geometry"/>
                </mxCell>
                <mxCell id="176" value="order_suplier" style="rhombus;whiteSpace=wrap;html=1;" parent="1" vertex="1">
                    <mxGeometry x="1680" y="1090" width="160" height="80" as="geometry"/>
                </mxCell>
                <mxCell id="179" value="" style="endArrow=none;html=1;startArrow=none;" parent="1" source="175" target="178" edge="1">
                    <mxGeometry width="50" height="50" relative="1" as="geometry">
                        <mxPoint x="1764.3636363636365" y="532.181818181818" as="sourcePoint"/>
                        <mxPoint x="1786.5384615384614" y="340" as="targetPoint"/>
                    </mxGeometry>
                </mxCell>
                <mxCell id="178" value="M" style="text;strokeColor=none;align=center;fillColor=none;html=1;verticalAlign=middle;whiteSpace=wrap;rounded=0;" parent="1" vertex="1">
                    <mxGeometry x="1750" y="430" width="60" height="30" as="geometry"/>
                </mxCell>
                <mxCell id="181" value="" style="endArrow=none;html=1;" parent="1" source="114" target="180" edge="1">
                    <mxGeometry width="50" height="50" relative="1" as="geometry">
                        <mxPoint x="1591.3483146067415" y="807" as="sourcePoint"/>
                        <mxPoint x="1738.6516853932585" y="600" as="targetPoint"/>
                    </mxGeometry>
                </mxCell>
                <mxCell id="180" value="M" style="text;strokeColor=none;align=center;fillColor=none;html=1;verticalAlign=middle;whiteSpace=wrap;rounded=0;" parent="1" vertex="1">
                    <mxGeometry x="1640" y="690" width="60" height="30" as="geometry"/>
                </mxCell>
                <mxCell id="365" style="edgeStyle=none;html=1;" parent="1" source="364" target="175" edge="1">
                    <mxGeometry relative="1" as="geometry"/>
                </mxCell>
                <mxCell id="364" value="buyer_id" style="ellipse;whiteSpace=wrap;html=1;" parent="1" vertex="1">
                    <mxGeometry x="1870" y="570" width="110" height="50" as="geometry"/>
                </mxCell>
                <mxCell id="366" value="importer" style="rounded=0;whiteSpace=wrap;html=1;" parent="1" vertex="1">
                    <mxGeometry x="1070" y="610" width="120" height="60" as="geometry"/>
                </mxCell>
                <mxCell id="368" value="" style="edgeStyle=none;html=1;" parent="1" source="367" target="366" edge="1">
                    <mxGeometry relative="1" as="geometry">
                        <Array as="points">
                            <mxPoint x="1190" y="640"/>
                        </Array>
                    </mxGeometry>
                </mxCell>
                <mxCell id="367" value="name" style="ellipse;whiteSpace=wrap;html=1;" parent="1" vertex="1">
                    <mxGeometry x="1225" y="620" width="90" height="50" as="geometry"/>
                </mxCell>
                <mxCell id="370" value="" style="endArrow=none;html=1;exitX=0.828;exitY=0.985;exitDx=0;exitDy=0;exitPerimeter=0;entryX=0;entryY=0.5;entryDx=0;entryDy=0;startArrow=none;" parent="1" source="371" target="366" edge="1">
                    <mxGeometry width="50" height="50" relative="1" as="geometry">
                        <mxPoint x="1130" y="700" as="sourcePoint"/>
                        <mxPoint x="1180" y="650" as="targetPoint"/>
                    </mxGeometry>
                </mxCell>
                <mxCell id="372" value="" style="endArrow=none;html=1;exitX=0.828;exitY=0.985;exitDx=0;exitDy=0;exitPerimeter=0;entryX=0;entryY=0.5;entryDx=0;entryDy=0;" parent="1" source="2" target="371" edge="1">
                    <mxGeometry width="50" height="50" relative="1" as="geometry">
                        <mxPoint x="854.3599999999997" y="529.1" as="sourcePoint"/>
                        <mxPoint x="1070" y="640" as="targetPoint"/>
                    </mxGeometry>
                </mxCell>
                <mxCell id="371" value="1 - M" style="text;strokeColor=none;align=center;fillColor=none;html=1;verticalAlign=middle;whiteSpace=wrap;rounded=0;rotation=0;" parent="1" vertex="1">
                    <mxGeometry x="940" y="580" width="60" height="30" as="geometry"/>
                </mxCell>
                <mxCell id="374" value="manufacturer" style="rounded=0;whiteSpace=wrap;html=1;" parent="1" vertex="1">
                    <mxGeometry x="1295" y="255" width="120" height="60" as="geometry"/>
                </mxCell>
                <mxCell id="380" style="edgeStyle=none;html=1;" parent="1" source="376" target="374" edge="1">
                    <mxGeometry relative="1" as="geometry"/>
                </mxCell>
                <mxCell id="376" value="name" style="ellipse;whiteSpace=wrap;html=1;" parent="1" vertex="1">
                    <mxGeometry x="1440" y="260" width="90" height="50" as="geometry"/>
                </mxCell>
                <mxCell id="377" value="" style="endArrow=none;html=1;startArrow=none;" parent="1" source="378" target="374" edge="1">
                    <mxGeometry width="50" height="50" relative="1" as="geometry">
                        <mxPoint x="1100" y="320" as="sourcePoint"/>
                        <mxPoint x="1150" y="270" as="targetPoint"/>
                    </mxGeometry>
                </mxCell>
                <mxCell id="379" value="" style="endArrow=none;html=1;" parent="1" source="2" target="378" edge="1">
                    <mxGeometry width="50" height="50" relative="1" as="geometry">
                        <mxPoint x="875" y="476.1111111111111" as="sourcePoint"/>
                        <mxPoint x="1295" y="308.8888888888889" as="targetPoint"/>
                    </mxGeometry>
                </mxCell>
                <mxCell id="378" value="1 - M" style="text;strokeColor=none;align=center;fillColor=none;html=1;verticalAlign=middle;whiteSpace=wrap;rounded=0;rotation=5;" parent="1" vertex="1">
                    <mxGeometry x="1138" y="340" width="60" height="30" as="geometry"/>
                </mxCell>
                <mxCell id="382" value="product" style="rounded=0;whiteSpace=wrap;html=1;" parent="1" vertex="1">
                    <mxGeometry x="-1488" y="563.81" width="120" height="60" as="geometry"/>
                </mxCell>
                <mxCell id="383" style="edgeStyle=none;html=1;" parent="1" source="384" target="382" edge="1">
                    <mxGeometry relative="1" as="geometry"/>
                </mxCell>
                <mxCell id="384" value="date_of_manufacture" style="ellipse;whiteSpace=wrap;html=1;" parent="1" vertex="1">
                    <mxGeometry x="-1633" y="525" width="130" height="50" as="geometry"/>
                </mxCell>
                <mxCell id="385" style="edgeStyle=none;html=1;" parent="1" source="386" target="382" edge="1">
                    <mxGeometry relative="1" as="geometry"/>
                </mxCell>
                <mxCell id="386" value="shelf_life" style="ellipse;whiteSpace=wrap;html=1;" parent="1" vertex="1">
                    <mxGeometry x="-1410" y="707" width="100" height="50" as="geometry"/>
                </mxCell>
                <mxCell id="387" style="edgeStyle=none;html=1;" parent="1" source="388" target="382" edge="1">
                    <mxGeometry relative="1" as="geometry"/>
                </mxCell>
                <mxCell id="388" value="composition" style="ellipse;whiteSpace=wrap;html=1;" parent="1" vertex="1">
                    <mxGeometry x="-1553" y="695" width="110" height="50" as="geometry"/>
                </mxCell>
                <mxCell id="389" style="edgeStyle=none;html=1;" parent="1" source="390" target="382" edge="1">
                    <mxGeometry relative="1" as="geometry"/>
                </mxCell>
                <mxCell id="390" value="storage_temperature" style="ellipse;whiteSpace=wrap;html=1;" parent="1" vertex="1">
                    <mxGeometry x="-1663" y="650" width="130" height="50" as="geometry"/>
                </mxCell>
                <mxCell id="391" style="edgeStyle=none;html=1;" parent="1" source="392" target="382" edge="1">
                    <mxGeometry relative="1" as="geometry"/>
                </mxCell>
                <mxCell id="392" value="place_of_origin" style="ellipse;whiteSpace=wrap;html=1;" parent="1" vertex="1">
                    <mxGeometry x="-1383" y="480" width="130" height="50" as="geometry"/>
                </mxCell>
                <mxCell id="393" style="edgeStyle=none;html=1;" parent="1" source="394" target="382" edge="1">
                    <mxGeometry relative="1" as="geometry"/>
                </mxCell>
                <mxCell id="394" value="manufacturer_id&lt;span style=&quot;color: rgba(0, 0, 0, 0); font-family: monospace; font-size: 0px; text-align: start;&quot;&gt;%3CmxGraphModel%3E%3Croot%3E%3CmxCell%20id%3D%220%22%2F%3E%3CmxCell%20id%3D%221%22%20parent%3D%220%22%2F%3E%3CmxCell%20id%3D%222%22%20value%3D%22place_of_origin%22%20style%3D%22ellipse%3BwhiteSpace%3Dwrap%3Bhtml%3D1%3B%22%20vertex%3D%221%22%20parent%3D%221%22%3E%3CmxGeometry%20x%3D%22520%22%20y%3D%2290%22%20width%3D%22130%22%20height%3D%2250%22%20as%3D%22geometry%22%2F%3E%3C%2FmxCell%3E%3C%2Froot%3E%3C%2FmxGraphModel%3E&lt;/span&gt;" style="ellipse;whiteSpace=wrap;html=1;" parent="1" vertex="1">
                    <mxGeometry x="-1298" y="530" width="130" height="50" as="geometry"/>
                </mxCell>
                <mxCell id="395" style="edgeStyle=none;html=1;" parent="1" source="396" target="382" edge="1">
                    <mxGeometry relative="1" as="geometry"/>
                </mxCell>
                <mxCell id="396" value="importer_id" style="ellipse;whiteSpace=wrap;html=1;" parent="1" vertex="1">
                    <mxGeometry x="-1298" y="620" width="130" height="50" as="geometry"/>
                </mxCell>
                <mxCell id="409" value="manufacturer" style="rounded=0;whiteSpace=wrap;html=1;" parent="1" vertex="1">
                    <mxGeometry x="-1488" y="827" width="120" height="60" as="geometry"/>
                </mxCell>
                <mxCell id="412" style="edgeStyle=none;html=1;entryX=0.5;entryY=1;entryDx=0;entryDy=0;" parent="1" source="411" target="409" edge="1">
                    <mxGeometry relative="1" as="geometry">
                        <mxPoint x="-1439.58" y="886.37" as="targetPoint"/>
                    </mxGeometry>
                </mxCell>
                <mxCell id="411" value="name" style="ellipse;whiteSpace=wrap;html=1;" parent="1" vertex="1">
                    <mxGeometry x="-1473" y="923.63" width="90" height="50" as="geometry"/>
                </mxCell>
                <mxCell id="426" value="importer" style="rounded=0;whiteSpace=wrap;html=1;" parent="1" vertex="1">
                    <mxGeometry x="-1493" y="360" width="120" height="60" as="geometry"/>
                </mxCell>
                <mxCell id="431" style="edgeStyle=none;html=1;" parent="1" source="430" target="426" edge="1">
                    <mxGeometry relative="1" as="geometry"/>
                </mxCell>
                <mxCell id="430" value="name" style="ellipse;whiteSpace=wrap;html=1;" parent="1" vertex="1">
                    <mxGeometry x="-1478" y="270" width="90" height="50" as="geometry"/>
                </mxCell>
                <mxCell id="435" value="" style="fontSize=12;html=1;endArrow=ERoneToMany;exitX=0.5;exitY=1;exitDx=0;exitDy=0;startArrow=none;" parent="1" source="500" target="382" edge="1">
                    <mxGeometry width="100" height="100" relative="1" as="geometry">
                        <mxPoint x="-1503" y="490" as="sourcePoint"/>
                        <mxPoint x="-1403" y="390" as="targetPoint"/>
                    </mxGeometry>
                </mxCell>
                <mxCell id="436" value="" style="fontSize=12;html=1;endArrow=ERoneToMany;exitX=0.5;exitY=0;exitDx=0;exitDy=0;entryX=0.5;entryY=1;entryDx=0;entryDy=0;startArrow=none;" parent="1" source="498" target="382" edge="1">
                    <mxGeometry width="100" height="100" relative="1" as="geometry">
                        <mxPoint x="-1423" y="430" as="sourcePoint"/>
                        <mxPoint x="-1418.8630113342156" y="573.81" as="targetPoint"/>
                    </mxGeometry>
                </mxCell>
                <mxCell id="439" value="" style="endArrow=none;html=1;elbow=vertical;entryX=0.003;entryY=0.599;entryDx=0;entryDy=0;entryPerimeter=0;" parent="1" target="382" edge="1">
                    <mxGeometry width="50" height="50" relative="1" as="geometry">
                        <mxPoint x="-1723" y="600" as="sourcePoint"/>
                        <mxPoint x="-1553" y="500" as="targetPoint"/>
                    </mxGeometry>
                </mxCell>
                <mxCell id="440" value="" style="endArrow=none;html=1;elbow=vertical;" parent="1" edge="1">
                    <mxGeometry width="50" height="50" relative="1" as="geometry">
                        <mxPoint x="-1723" y="600" as="sourcePoint"/>
                        <mxPoint x="-1723" y="120" as="targetPoint"/>
                    </mxGeometry>
                </mxCell>
                <mxCell id="441" value="cosmetic" style="rounded=0;whiteSpace=wrap;html=1;" parent="1" vertex="1">
                    <mxGeometry x="-2103" y="190" width="120" height="60" as="geometry"/>
                </mxCell>
                <mxCell id="442" style="edgeStyle=none;html=1;" parent="1" source="443" target="441" edge="1">
                    <mxGeometry relative="1" as="geometry"/>
                </mxCell>
                <mxCell id="443" value="products_id" style="ellipse;whiteSpace=wrap;html=1;" parent="1" vertex="1">
                    <mxGeometry x="-2233" y="195" width="90" height="50" as="geometry"/>
                </mxCell>
                <mxCell id="444" style="edgeStyle=none;html=1;" parent="1" source="445" target="446" edge="1">
                    <mxGeometry relative="1" as="geometry"/>
                </mxCell>
                <mxCell id="445" value="products_id" style="ellipse;whiteSpace=wrap;html=1;" parent="1" vertex="1">
                    <mxGeometry x="-2253" y="630" width="90" height="50" as="geometry"/>
                </mxCell>
                <mxCell id="446" value="food_product" style="rounded=0;whiteSpace=wrap;html=1;" parent="1" vertex="1">
                    <mxGeometry x="-2103" y="620" width="120" height="60" as="geometry"/>
                </mxCell>
                <mxCell id="447" value="drinks" style="rounded=0;whiteSpace=wrap;html=1;" parent="1" vertex="1">
                    <mxGeometry x="-2103" y="790" width="120" height="60" as="geometry"/>
                </mxCell>
                <mxCell id="489" style="edgeStyle=none;html=1;elbow=vertical;" parent="1" source="448" target="447" edge="1">
                    <mxGeometry relative="1" as="geometry"/>
                </mxCell>
                <mxCell id="448" value="products_id" style="ellipse;whiteSpace=wrap;html=1;" parent="1" vertex="1">
                    <mxGeometry x="-2293" y="845" width="90" height="50" as="geometry"/>
                </mxCell>
                <mxCell id="488" style="edgeStyle=none;html=1;elbow=vertical;" parent="1" source="449" target="447" edge="1">
                    <mxGeometry relative="1" as="geometry"/>
                </mxCell>
                <mxCell id="449" value="alcoholic(yes/no)" style="ellipse;whiteSpace=wrap;html=1;" parent="1" vertex="1">
                    <mxGeometry x="-2308" y="770" width="120" height="50" as="geometry"/>
                </mxCell>
                <mxCell id="450" style="edgeStyle=none;html=1;" parent="1" source="451" target="447" edge="1">
                    <mxGeometry relative="1" as="geometry"/>
                </mxCell>
                <mxCell id="451" value="carbonated(yes/no)" style="ellipse;whiteSpace=wrap;html=1;" parent="1" vertex="1">
                    <mxGeometry x="-2193" y="720" width="130" height="50" as="geometry"/>
                </mxCell>
                <mxCell id="452" style="edgeStyle=none;html=1;" parent="1" source="453" target="447" edge="1">
                    <mxGeometry relative="1" as="geometry"/>
                </mxCell>
                <mxCell id="453" value="percentage_of_alcohol(%)" style="ellipse;whiteSpace=wrap;html=1;" parent="1" vertex="1">
                    <mxGeometry x="-2208" y="892" width="160" height="50" as="geometry"/>
                </mxCell>
                <mxCell id="454" value="tobacco" style="rounded=0;whiteSpace=wrap;html=1;" parent="1" vertex="1">
                    <mxGeometry x="-2113" y="1105" width="120" height="60" as="geometry"/>
                </mxCell>
                <mxCell id="457" style="edgeStyle=none;html=1;" parent="1" source="458" target="454" edge="1">
                    <mxGeometry relative="1" as="geometry"/>
                </mxCell>
                <mxCell id="458" value="tar(mg)" style="ellipse;whiteSpace=wrap;html=1;" parent="1" vertex="1">
                    <mxGeometry x="-2243" y="1095" width="90" height="50" as="geometry"/>
                </mxCell>
                <mxCell id="459" style="edgeStyle=none;html=1;" parent="1" source="460" target="454" edge="1">
                    <mxGeometry relative="1" as="geometry"/>
                </mxCell>
                <mxCell id="460" value="carbon_monoxide(mg)" style="ellipse;whiteSpace=wrap;html=1;" parent="1" vertex="1">
                    <mxGeometry x="-2233" y="1025" width="130" height="50" as="geometry"/>
                </mxCell>
                <mxCell id="461" style="edgeStyle=none;html=1;" parent="1" source="462" target="454" edge="1">
                    <mxGeometry relative="1" as="geometry"/>
                </mxCell>
                <mxCell id="462" value="nicotine(mg)" style="ellipse;whiteSpace=wrap;html=1;" parent="1" vertex="1">
                    <mxGeometry x="-2083" y="1015" width="90" height="50" as="geometry"/>
                </mxCell>
                <mxCell id="463" style="edgeStyle=none;html=1;" parent="1" source="464" target="454" edge="1">
                    <mxGeometry relative="1" as="geometry"/>
                </mxCell>
                <mxCell id="464" value="cigaretes_per_piece" style="ellipse;whiteSpace=wrap;html=1;" parent="1" vertex="1">
                    <mxGeometry x="-2138" y="1215" width="140" height="50" as="geometry"/>
                </mxCell>
                <mxCell id="465" style="edgeStyle=none;html=1;" parent="1" source="466" target="454" edge="1">
                    <mxGeometry relative="1" as="geometry"/>
                </mxCell>
                <mxCell id="466" value="pieces_in_box" style="ellipse;whiteSpace=wrap;html=1;" parent="1" vertex="1">
                    <mxGeometry x="-1973" y="1235" width="140" height="50" as="geometry"/>
                </mxCell>
                <mxCell id="467" style="edgeStyle=none;html=1;" parent="1" source="468" target="454" edge="1">
                    <mxGeometry relative="1" as="geometry"/>
                </mxCell>
                <mxCell id="468" value="dry_tobacco" style="ellipse;whiteSpace=wrap;html=1;" parent="1" vertex="1">
                    <mxGeometry x="-1943" y="1150" width="140" height="50" as="geometry"/>
                </mxCell>
                <mxCell id="469" value="milk_and_diary" style="rounded=0;whiteSpace=wrap;html=1;" parent="1" vertex="1">
                    <mxGeometry x="-2103" y="80" width="120" height="60" as="geometry"/>
                </mxCell>
                <mxCell id="470" style="edgeStyle=none;html=1;" parent="1" source="471" target="454" edge="1">
                    <mxGeometry relative="1" as="geometry"/>
                </mxCell>
                <mxCell id="471" value="products_id" style="ellipse;whiteSpace=wrap;html=1;" parent="1" vertex="1">
                    <mxGeometry x="-1973" y="1020" width="90" height="50" as="geometry"/>
                </mxCell>
                <mxCell id="472" style="edgeStyle=none;html=1;" parent="1" source="473" target="469" edge="1">
                    <mxGeometry relative="1" as="geometry"/>
                </mxCell>
                <mxCell id="473" value="products_id" style="ellipse;whiteSpace=wrap;html=1;" parent="1" vertex="1">
                    <mxGeometry x="-2228" y="85" width="90" height="50" as="geometry"/>
                </mxCell>
                <mxCell id="474" value="confectionery" style="rounded=0;whiteSpace=wrap;html=1;" parent="1" vertex="1">
                    <mxGeometry x="-2103" y="310" width="120" height="60" as="geometry"/>
                </mxCell>
                <mxCell id="485" style="edgeStyle=none;html=1;elbow=vertical;" parent="1" source="475" target="474" edge="1">
                    <mxGeometry relative="1" as="geometry"/>
                </mxCell>
                <mxCell id="475" value="products_id" style="ellipse;whiteSpace=wrap;html=1;" parent="1" vertex="1">
                    <mxGeometry x="-2233" y="320" width="90" height="50" as="geometry"/>
                </mxCell>
                <mxCell id="476" value="household" style="rounded=0;whiteSpace=wrap;html=1;" parent="1" vertex="1">
                    <mxGeometry x="-2103" y="450" width="120" height="60" as="geometry"/>
                </mxCell>
                <mxCell id="477" style="edgeStyle=none;html=1;" parent="1" source="478" target="476" edge="1">
                    <mxGeometry relative="1" as="geometry"/>
                </mxCell>
                <mxCell id="478" value="product_Id" style="ellipse;whiteSpace=wrap;html=1;" parent="1" vertex="1">
                    <mxGeometry x="-2293" y="515" width="130" height="50" as="geometry"/>
                </mxCell>
                <mxCell id="479" style="edgeStyle=none;html=1;" parent="1" source="480" target="476" edge="1">
                    <mxGeometry relative="1" as="geometry"/>
                </mxCell>
                <mxCell id="480" value="category" style="ellipse;whiteSpace=wrap;html=1;" parent="1" vertex="1">
                    <mxGeometry x="-2293" y="430" width="130" height="50" as="geometry"/>
                </mxCell>
                <mxCell id="490" value="" style="endArrow=none;html=1;elbow=vertical;" parent="1" edge="1">
                    <mxGeometry width="50" height="50" relative="1" as="geometry">
                        <mxPoint x="-1723" y="1130" as="sourcePoint"/>
                        <mxPoint x="-1723" y="600" as="targetPoint"/>
                    </mxGeometry>
                </mxCell>
                <mxCell id="491" value="" style="endArrow=none;html=1;elbow=vertical;exitX=1.005;exitY=0.406;exitDx=0;exitDy=0;exitPerimeter=0;" parent="1" source="454" edge="1">
                    <mxGeometry width="50" height="50" relative="1" as="geometry">
                        <mxPoint x="-1733" y="950" as="sourcePoint"/>
                        <mxPoint x="-1723" y="1130" as="targetPoint"/>
                    </mxGeometry>
                </mxCell>
                <mxCell id="492" value="" style="endArrow=none;html=1;elbow=vertical;exitX=1;exitY=0.5;exitDx=0;exitDy=0;" parent="1" source="447" edge="1">
                    <mxGeometry width="50" height="50" relative="1" as="geometry">
                        <mxPoint x="-1982.4" y="1139.3600000000001" as="sourcePoint"/>
                        <mxPoint x="-1723" y="820" as="targetPoint"/>
                    </mxGeometry>
                </mxCell>
                <mxCell id="493" value="" style="endArrow=none;html=1;elbow=vertical;exitX=1;exitY=0.5;exitDx=0;exitDy=0;" parent="1" source="446" edge="1">
                    <mxGeometry width="50" height="50" relative="1" as="geometry">
                        <mxPoint x="-1943" y="540" as="sourcePoint"/>
                        <mxPoint x="-1723" y="650" as="targetPoint"/>
                    </mxGeometry>
                </mxCell>
                <mxCell id="494" value="" style="endArrow=none;html=1;elbow=vertical;exitX=1;exitY=0.5;exitDx=0;exitDy=0;" parent="1" source="476" edge="1">
                    <mxGeometry width="50" height="50" relative="1" as="geometry">
                        <mxPoint x="-1973" y="660" as="sourcePoint"/>
                        <mxPoint x="-1723" y="480" as="targetPoint"/>
                    </mxGeometry>
                </mxCell>
                <mxCell id="495" value="" style="endArrow=none;html=1;elbow=vertical;entryX=1;entryY=0.5;entryDx=0;entryDy=0;" parent="1" target="474" edge="1">
                    <mxGeometry width="50" height="50" relative="1" as="geometry">
                        <mxPoint x="-1723" y="340" as="sourcePoint"/>
                        <mxPoint x="-1713" y="490" as="targetPoint"/>
                    </mxGeometry>
                </mxCell>
                <mxCell id="496" value="" style="endArrow=none;html=1;elbow=vertical;exitX=1;exitY=0.5;exitDx=0;exitDy=0;" parent="1" source="441" edge="1">
                    <mxGeometry width="50" height="50" relative="1" as="geometry">
                        <mxPoint x="-1713" y="350" as="sourcePoint"/>
                        <mxPoint x="-1723" y="220" as="targetPoint"/>
                    </mxGeometry>
                </mxCell>
                <mxCell id="497" value="" style="endArrow=none;html=1;elbow=vertical;exitX=1.013;exitY=0.627;exitDx=0;exitDy=0;exitPerimeter=0;" parent="1" source="469" edge="1">
                    <mxGeometry width="50" height="50" relative="1" as="geometry">
                        <mxPoint x="-1973" y="230" as="sourcePoint"/>
                        <mxPoint x="-1723" y="120" as="targetPoint"/>
                    </mxGeometry>
                </mxCell>
                <mxCell id="499" value="" style="fontSize=12;html=1;endArrow=none;exitX=0.5;exitY=0;exitDx=0;exitDy=0;entryX=0.5;entryY=1;entryDx=0;entryDy=0;" parent="1" source="409" target="498" edge="1">
                    <mxGeometry width="100" height="100" relative="1" as="geometry">
                        <mxPoint x="-1433" y="826.3699999999999" as="sourcePoint"/>
                        <mxPoint x="-1428" y="623.81" as="targetPoint"/>
                    </mxGeometry>
                </mxCell>
                <mxCell id="498" value="1 - M" style="text;strokeColor=none;align=center;fillColor=none;html=1;verticalAlign=middle;whiteSpace=wrap;rounded=0;" parent="1" vertex="1">
                    <mxGeometry x="-1458" y="750" width="60" height="30" as="geometry"/>
                </mxCell>
                <mxCell id="501" value="" style="fontSize=12;html=1;endArrow=none;exitX=0.5;exitY=1;exitDx=0;exitDy=0;" parent="1" source="426" target="500" edge="1">
                    <mxGeometry width="100" height="100" relative="1" as="geometry">
                        <mxPoint x="-1433" y="420" as="sourcePoint"/>
                        <mxPoint x="-1428.8630113342153" y="563.8100000000001" as="targetPoint"/>
                    </mxGeometry>
                </mxCell>
                <mxCell id="500" value="1 - M" style="text;strokeColor=none;align=center;fillColor=none;html=1;verticalAlign=middle;whiteSpace=wrap;rounded=0;" parent="1" vertex="1">
                    <mxGeometry x="-1463" y="455" width="60" height="30" as="geometry"/>
                </mxCell>
                <mxCell id="502" value="buyer" style="rounded=0;whiteSpace=wrap;html=1;" parent="1" vertex="1">
                    <mxGeometry x="-400" y="570" width="120" height="60" as="geometry"/>
                </mxCell>
                <mxCell id="503" style="edgeStyle=none;html=1;entryX=0.375;entryY=0.15;entryDx=0;entryDy=0;entryPerimeter=0;" parent="1" source="504" target="507" edge="1">
                    <mxGeometry relative="1" as="geometry">
                        <mxPoint x="-750.5" y="570" as="targetPoint"/>
                    </mxGeometry>
                </mxCell>
                <mxCell id="504" value="products_id" style="ellipse;whiteSpace=wrap;html=1;" parent="1" vertex="1">
                    <mxGeometry x="-837.5" y="500" width="90" height="50" as="geometry"/>
                </mxCell>
                <mxCell id="505" style="edgeStyle=none;html=1;" parent="1" source="506" target="507" edge="1">
                    <mxGeometry relative="1" as="geometry">
                        <mxPoint x="-700.5" y="570" as="targetPoint"/>
                    </mxGeometry>
                </mxCell>
                <mxCell id="506" value="buyer_id" style="ellipse;whiteSpace=wrap;html=1;" parent="1" vertex="1">
                    <mxGeometry x="-712.5" y="500" width="90" height="50" as="geometry"/>
                </mxCell>
                <mxCell id="508" value="" style="endArrow=none;html=1;elbow=vertical;startArrow=none;entryX=0;entryY=0.5;entryDx=0;entryDy=0;" parent="1" source="507" target="502" edge="1">
                    <mxGeometry width="50" height="50" relative="1" as="geometry">
                        <mxPoint x="-1370" y="600" as="sourcePoint"/>
                        <mxPoint x="-480" y="600" as="targetPoint"/>
                    </mxGeometry>
                </mxCell>
                <mxCell id="509" value="" style="endArrow=none;html=1;elbow=vertical;" parent="1" target="507" edge="1">
                    <mxGeometry width="50" height="50" relative="1" as="geometry">
                        <mxPoint x="-1370" y="600" as="sourcePoint"/>
                        <mxPoint x="-480" y="600" as="targetPoint"/>
                    </mxGeometry>
                </mxCell>
                <mxCell id="507" value="shopping_cart" style="rhombus;whiteSpace=wrap;html=1;" parent="1" vertex="1">
                    <mxGeometry x="-807.5" y="562.5" width="160" height="80" as="geometry"/>
                </mxCell>
                <mxCell id="510" value="administrator" style="rounded=0;whiteSpace=wrap;html=1;" parent="1" vertex="1">
                    <mxGeometry x="-1000" y="1205" width="120" height="60" as="geometry"/>
                </mxCell>
                <mxCell id="511" value="" style="endArrow=none;html=1;startArrow=none;" parent="1" source="514" edge="1">
                    <mxGeometry width="50" height="50" relative="1" as="geometry">
                        <mxPoint x="-963.2926829268295" y="910.0000000000002" as="sourcePoint"/>
                        <mxPoint x="-1090" y="970" as="targetPoint"/>
                    </mxGeometry>
                </mxCell>
                <mxCell id="513" value="" style="endArrow=none;html=1;" parent="1" source="510" target="514" edge="1">
                    <mxGeometry width="50" height="50" relative="1" as="geometry">
                        <mxPoint x="-960" y="910.0000000000002" as="sourcePoint"/>
                        <mxPoint x="-1093.333333333333" y="776.6666666666667" as="targetPoint"/>
                    </mxGeometry>
                </mxCell>
                <mxCell id="514" value="M" style="text;strokeColor=none;align=center;fillColor=none;html=1;verticalAlign=middle;whiteSpace=wrap;rounded=0;" parent="1" vertex="1">
                    <mxGeometry x="-1050" y="1085" width="60" height="30" as="geometry"/>
                </mxCell>
                <mxCell id="519" value="" style="edgeStyle=none;html=1;elbow=vertical;" parent="1" source="515" edge="1">
                    <mxGeometry relative="1" as="geometry">
                        <mxPoint x="-1111.4634146341464" y="959.268292682927" as="targetPoint"/>
                    </mxGeometry>
                </mxCell>
                <mxCell id="515" value="products_id" style="ellipse;whiteSpace=wrap;html=1;" parent="1" vertex="1">
                    <mxGeometry x="-1230" y="1015" width="90" height="50" as="geometry"/>
                </mxCell>
                <mxCell id="520" style="edgeStyle=none;html=1;entryX=0.181;entryY=0.662;entryDx=0;entryDy=0;entryPerimeter=0;elbow=vertical;" parent="1" source="516" edge="1">
                    <mxGeometry relative="1" as="geometry">
                        <mxPoint x="-1141.04" y="942.96" as="targetPoint"/>
                    </mxGeometry>
                </mxCell>
                <mxCell id="516" value="administrator_id" style="ellipse;whiteSpace=wrap;html=1;" parent="1" vertex="1">
                    <mxGeometry x="-1290" y="917.5" width="90" height="50" as="geometry"/>
                </mxCell>
                <mxCell id="518" value="" style="endArrow=none;html=1;elbow=vertical;exitX=0.5;exitY=1;exitDx=0;exitDy=0;entryX=0.5;entryY=0;entryDx=0;entryDy=0;startArrow=none;" parent="1" source="521" target="577" edge="1">
                    <mxGeometry width="50" height="50" relative="1" as="geometry">
                        <mxPoint x="-870" y="840" as="sourcePoint"/>
                        <mxPoint x="-1130" y="910" as="targetPoint"/>
                    </mxGeometry>
                </mxCell>
                <mxCell id="522" value="" style="endArrow=none;html=1;elbow=vertical;exitX=1;exitY=1;exitDx=0;exitDy=0;entryX=0;entryY=0;entryDx=0;entryDy=0;" parent="1" source="382" target="521" edge="1">
                    <mxGeometry width="50" height="50" relative="1" as="geometry">
                        <mxPoint x="-1380" y="620.0299999999997" as="sourcePoint"/>
                        <mxPoint x="-1130" y="910" as="targetPoint"/>
                    </mxGeometry>
                </mxCell>
                <mxCell id="521" value="M" style="text;strokeColor=none;align=center;fillColor=none;html=1;verticalAlign=middle;whiteSpace=wrap;rounded=0;" parent="1" vertex="1">
                    <mxGeometry x="-1228" y="757" width="60" height="30" as="geometry"/>
                </mxCell>
                <mxCell id="524" value="orders" style="rounded=0;whiteSpace=wrap;html=1;" parent="1" vertex="1">
                    <mxGeometry x="-790" y="879.5" width="120" height="60" as="geometry"/>
                </mxCell>
                <mxCell id="525" style="edgeStyle=none;html=1;" parent="1" source="526" target="524" edge="1">
                    <mxGeometry relative="1" as="geometry"/>
                </mxCell>
                <mxCell id="526" value="administrator_id" style="ellipse;whiteSpace=wrap;html=1;" parent="1" vertex="1">
                    <mxGeometry x="-920" y="907.5" width="110" height="50" as="geometry"/>
                </mxCell>
                <mxCell id="527" style="edgeStyle=none;html=1;" parent="1" source="528" target="524" edge="1">
                    <mxGeometry relative="1" as="geometry"/>
                </mxCell>
                <mxCell id="528" value="order_date" style="ellipse;whiteSpace=wrap;html=1;" parent="1" vertex="1">
                    <mxGeometry x="-860" y="970" width="90" height="50" as="geometry"/>
                </mxCell>
                <mxCell id="529" style="edgeStyle=none;html=1;" parent="1" source="530" target="524" edge="1">
                    <mxGeometry relative="1" as="geometry"/>
                </mxCell>
                <mxCell id="530" value="date_of_approval" style="ellipse;whiteSpace=wrap;html=1;" parent="1" vertex="1">
                    <mxGeometry x="-892.5" y="757" width="130" height="50" as="geometry"/>
                </mxCell>
                <mxCell id="531" style="edgeStyle=none;html=1;" parent="1" source="532" target="524" edge="1">
                    <mxGeometry relative="1" as="geometry"/>
                </mxCell>
                <mxCell id="532" value="delivery_date" style="ellipse;whiteSpace=wrap;html=1;" parent="1" vertex="1">
                    <mxGeometry x="-937.5" y="840" width="130" height="50" as="geometry"/>
                </mxCell>
                <mxCell id="533" style="edgeStyle=none;html=1;" parent="1" source="534" target="524" edge="1">
                    <mxGeometry relative="1" as="geometry"/>
                </mxCell>
                <mxCell id="534" value="shopping_cart_id" style="ellipse;whiteSpace=wrap;html=1;" parent="1" vertex="1">
                    <mxGeometry x="-720" y="985" width="130" height="50" as="geometry"/>
                </mxCell>
                <mxCell id="535" value="" style="endArrow=none;html=1;entryX=0.5;entryY=1;entryDx=0;entryDy=0;startArrow=none;" parent="1" source="580" target="507" edge="1">
                    <mxGeometry width="50" height="50" relative="1" as="geometry">
                        <mxPoint x="-708.6516853932585" y="879.5" as="sourcePoint"/>
                        <mxPoint x="-641.3636363636351" y="792.5" as="targetPoint"/>
                    </mxGeometry>
                </mxCell>
                <mxCell id="537" value="" style="endArrow=none;html=1;elbow=vertical;entryX=0.604;entryY=0.991;entryDx=0;entryDy=0;entryPerimeter=0;startArrow=none;" parent="1" source="578" target="524" edge="1">
                    <mxGeometry width="50" height="50" relative="1" as="geometry">
                        <mxPoint x="-720" y="1190" as="sourcePoint"/>
                        <mxPoint x="-550" y="1080" as="targetPoint"/>
                    </mxGeometry>
                </mxCell>
                <mxCell id="538" value="suplier" style="rounded=0;whiteSpace=wrap;html=1;" parent="1" vertex="1">
                    <mxGeometry x="-380" y="1270" width="120" height="60" as="geometry"/>
                </mxCell>
                <mxCell id="583" style="edgeStyle=none;html=1;elbow=vertical;" parent="1" source="541" target="582" edge="1">
                    <mxGeometry relative="1" as="geometry"/>
                </mxCell>
                <mxCell id="541" value="suplier_id&lt;span style=&quot;color: rgba(0, 0, 0, 0); font-family: monospace; font-size: 0px; text-align: start;&quot;&gt;%3CmxGraphModel%3E%3Croot%3E%3CmxCell%20id%3D%220%22%2F%3E%3CmxCell%20id%3D%221%22%20parent%3D%220%22%2F%3E%3CmxCell%20id%3D%222%22%20value%3D%22administrator_id%22%20style%3D%22ellipse%3BwhiteSpace%3Dwrap%3Bhtml%3D1%3B%22%20vertex%3D%221%22%20parent%3D%221%22%3E%3CmxGeometry%20x%3D%221380%22%20y%3D%22835%22%20width%3D%22110%22%20height%3D%2250%22%20as%3D%22geometry%22%2F%3E%3C%2FmxCell%3E%3C%2Froot%3E%3C%2FmxGraphModel%3E&lt;/span&gt;" style="ellipse;whiteSpace=wrap;html=1;" parent="1" vertex="1">
                    <mxGeometry x="-480" y="1135" width="110" height="50" as="geometry"/>
                </mxCell>
                <mxCell id="542" style="edgeStyle=none;html=1;entryX=1;entryY=1;entryDx=0;entryDy=0;" parent="1" source="543" target="582" edge="1">
                    <mxGeometry relative="1" as="geometry">
                        <mxPoint x="-317.3684210526317" y="1095" as="targetPoint"/>
                    </mxGeometry>
                </mxCell>
                <mxCell id="543" value="order_id" style="ellipse;whiteSpace=wrap;html=1;" parent="1" vertex="1">
                    <mxGeometry x="-150" y="1140" width="110" height="50" as="geometry"/>
                </mxCell>
                <mxCell id="586" value="" style="edgeStyle=none;html=1;elbow=vertical;" parent="1" source="545" target="582" edge="1">
                    <mxGeometry relative="1" as="geometry"/>
                </mxCell>
                <mxCell id="545" value="delivery_status" style="ellipse;whiteSpace=wrap;html=1;" parent="1" vertex="1">
                    <mxGeometry x="-540" y="1045" width="110" height="50" as="geometry"/>
                </mxCell>
                <mxCell id="546" style="edgeStyle=none;html=1;entryX=0.25;entryY=0;entryDx=0;entryDy=0;" parent="1" source="547" target="582" edge="1">
                    <mxGeometry relative="1" as="geometry">
                        <mxPoint x="-345.9740259740265" y="1027.987012987013" as="targetPoint"/>
                    </mxGeometry>
                </mxCell>
                <mxCell id="547" value="delivery_time" style="ellipse;whiteSpace=wrap;html=1;" parent="1" vertex="1">
                    <mxGeometry x="-450" y="952" width="110" height="50" as="geometry"/>
                </mxCell>
                <mxCell id="548" style="edgeStyle=none;html=1;" parent="1" source="549" target="582" edge="1">
                    <mxGeometry relative="1" as="geometry">
                        <mxPoint x="-288.3720930232562" y="1030.813953488372" as="targetPoint"/>
                    </mxGeometry>
                </mxCell>
                <mxCell id="549" value="buyer_rating" style="ellipse;whiteSpace=wrap;html=1;" parent="1" vertex="1">
                    <mxGeometry x="-290" y="965" width="110" height="50" as="geometry"/>
                </mxCell>
                <mxCell id="550" style="edgeStyle=none;html=1;" parent="1" source="551" target="582" edge="1">
                    <mxGeometry relative="1" as="geometry">
                        <mxPoint x="-251.1627906976746" y="1060.5813953488373" as="targetPoint"/>
                    </mxGeometry>
                </mxCell>
                <mxCell id="551" value="comment" style="ellipse;whiteSpace=wrap;html=1;" parent="1" vertex="1">
                    <mxGeometry x="-190" y="1045" width="110" height="50" as="geometry"/>
                </mxCell>
                <mxCell id="577" value="administrators_products" style="rounded=0;whiteSpace=wrap;html=1;" parent="1" vertex="1">
                    <mxGeometry x="-1170" y="907.5" width="150" height="60" as="geometry"/>
                </mxCell>
                <mxCell id="579" value="" style="endArrow=none;html=1;elbow=vertical;entryX=0.5;entryY=1;entryDx=0;entryDy=0;" parent="1" source="510" target="578" edge="1">
                    <mxGeometry width="50" height="50" relative="1" as="geometry">
                        <mxPoint x="-720" y="1190" as="sourcePoint"/>
                        <mxPoint x="-717.52" y="938.96" as="targetPoint"/>
                    </mxGeometry>
                </mxCell>
                <mxCell id="578" value="M" style="text;strokeColor=none;align=center;fillColor=none;html=1;verticalAlign=middle;whiteSpace=wrap;rounded=0;" parent="1" vertex="1">
                    <mxGeometry x="-822.5" y="1075" width="60" height="50" as="geometry"/>
                </mxCell>
                <mxCell id="581" value="" style="endArrow=none;html=1;entryX=0.5;entryY=1;entryDx=0;entryDy=0;" parent="1" source="524" target="580" edge="1">
                    <mxGeometry width="50" height="50" relative="1" as="geometry">
                        <mxPoint x="-729.7191011235959" y="879.5" as="sourcePoint"/>
                        <mxPoint x="-727.5" y="642.5" as="targetPoint"/>
                    </mxGeometry>
                </mxCell>
                <mxCell id="580" value="M" style="text;strokeColor=none;align=center;fillColor=none;html=1;verticalAlign=middle;whiteSpace=wrap;rounded=0;" parent="1" vertex="1">
                    <mxGeometry x="-760" y="737" width="60" height="50" as="geometry"/>
                </mxCell>
                <mxCell id="582" value="order_suplier" style="rounded=0;whiteSpace=wrap;html=1;" parent="1" vertex="1">
                    <mxGeometry x="-380" y="1035" width="120" height="60" as="geometry"/>
                </mxCell>
                <mxCell id="587" value="" style="endArrow=none;html=1;elbow=vertical;startArrow=none;" parent="1" source="589" target="524" edge="1">
                    <mxGeometry width="50" height="50" relative="1" as="geometry">
                        <mxPoint x="-420" y="990" as="sourcePoint"/>
                        <mxPoint x="-370" y="940" as="targetPoint"/>
                    </mxGeometry>
                </mxCell>
                <mxCell id="588" value="" style="endArrow=none;html=1;elbow=vertical;startArrow=none;" parent="1" source="591" target="582" edge="1">
                    <mxGeometry width="50" height="50" relative="1" as="geometry">
                        <mxPoint x="-330" y="1170" as="sourcePoint"/>
                        <mxPoint x="-280" y="1120" as="targetPoint"/>
                    </mxGeometry>
                </mxCell>
                <mxCell id="590" value="" style="endArrow=none;html=1;elbow=vertical;" parent="1" source="582" target="589" edge="1">
                    <mxGeometry width="50" height="50" relative="1" as="geometry">
                        <mxPoint x="-380" y="1042.2439024390244" as="sourcePoint"/>
                        <mxPoint x="-670" y="932.2560975609756" as="targetPoint"/>
                    </mxGeometry>
                </mxCell>
                <mxCell id="589" value="M" style="text;strokeColor=none;align=center;fillColor=none;html=1;verticalAlign=middle;whiteSpace=wrap;rounded=0;" parent="1" vertex="1">
                    <mxGeometry x="-540" y="970" width="60" height="50" as="geometry"/>
                </mxCell>
                <mxCell id="592" value="" style="endArrow=none;html=1;elbow=vertical;" parent="1" source="538" target="591" edge="1">
                    <mxGeometry width="50" height="50" relative="1" as="geometry">
                        <mxPoint x="-320" y="1270" as="sourcePoint"/>
                        <mxPoint x="-320" y="1095" as="targetPoint"/>
                    </mxGeometry>
                </mxCell>
                <mxCell id="591" value="M" style="text;strokeColor=none;align=center;fillColor=none;html=1;verticalAlign=middle;whiteSpace=wrap;rounded=0;" parent="1" vertex="1">
                    <mxGeometry x="-350" y="1165" width="60" height="50" as="geometry"/>
                </mxCell>
                <mxCell id="593" style="edgeStyle=none;html=1;" parent="1" source="594" edge="1">
                    <mxGeometry relative="1" as="geometry">
                        <mxPoint x="-285.12195121951254" y="742.4390243902437" as="targetPoint"/>
                    </mxGeometry>
                </mxCell>
                <mxCell id="594" value="order_id" style="ellipse;whiteSpace=wrap;html=1;" parent="1" vertex="1">
                    <mxGeometry x="-270" y="690" width="110" height="50" as="geometry"/>
                </mxCell>
                <mxCell id="595" style="edgeStyle=none;html=1;" parent="1" source="596" edge="1">
                    <mxGeometry relative="1" as="geometry">
                        <mxPoint x="-314.864864864865" y="792.4324324324323" as="targetPoint"/>
                    </mxGeometry>
                </mxCell>
                <mxCell id="596" value="delivery_time" style="ellipse;whiteSpace=wrap;html=1;" parent="1" vertex="1">
                    <mxGeometry x="-350" y="810" width="110" height="50" as="geometry"/>
                </mxCell>
                <mxCell id="597" style="edgeStyle=none;html=1;" parent="1" source="598" edge="1">
                    <mxGeometry relative="1" as="geometry">
                        <mxPoint x="-374.8780487804879" y="777.5609756097563" as="targetPoint"/>
                    </mxGeometry>
                </mxCell>
                <mxCell id="598" value="rating" style="ellipse;whiteSpace=wrap;html=1;" parent="1" vertex="1">
                    <mxGeometry x="-520" y="755" width="90" height="50" as="geometry"/>
                </mxCell>
                <mxCell id="599" style="edgeStyle=none;html=1;" parent="1" source="600" edge="1">
                    <mxGeometry relative="1" as="geometry">
                        <mxPoint x="-367.89473684210543" y="738.9473684210527" as="targetPoint"/>
                    </mxGeometry>
                </mxCell>
                <mxCell id="600" value="comment" style="ellipse;whiteSpace=wrap;html=1;" parent="1" vertex="1">
                    <mxGeometry x="-500" y="682" width="85" height="55" as="geometry"/>
                </mxCell>
                <mxCell id="602" value="" style="endArrow=none;html=1;startArrow=none;exitX=0.5;exitY=0;exitDx=0;exitDy=0;" parent="1" source="605" target="502" edge="1">
                    <mxGeometry width="50" height="50" relative="1" as="geometry">
                        <mxPoint x="-324.0740740740739" y="722.9629629629633" as="sourcePoint"/>
                        <mxPoint x="-312.39999999999964" y="650" as="targetPoint"/>
                    </mxGeometry>
                </mxCell>
                <mxCell id="603" style="edgeStyle=none;html=1;" parent="1" source="604" edge="1">
                    <mxGeometry relative="1" as="geometry">
                        <mxPoint x="-268.604651162791" y="769.3023255813953" as="targetPoint"/>
                    </mxGeometry>
                </mxCell>
                <mxCell id="604" value="buyer_id" style="ellipse;whiteSpace=wrap;html=1;" parent="1" vertex="1">
                    <mxGeometry x="-220" y="760" width="110" height="50" as="geometry"/>
                </mxCell>
                <mxCell id="605" value="order_buyer" style="rounded=0;whiteSpace=wrap;html=1;" parent="1" vertex="1">
                    <mxGeometry x="-380" y="735" width="120" height="60" as="geometry"/>
                </mxCell>
                <mxCell id="607" value="" style="endArrow=none;html=1;elbow=vertical;entryX=0.25;entryY=1;entryDx=0;entryDy=0;" parent="1" source="524" target="605" edge="1">
                    <mxGeometry width="50" height="50" relative="1" as="geometry">
                        <mxPoint x="-490" y="960" as="sourcePoint"/>
                        <mxPoint x="-440" y="910" as="targetPoint"/>
                    </mxGeometry>
                </mxCell>
                <mxCell id="615" value="" style="edgeStyle=none;html=1;elbow=vertical;" parent="1" source="610" target="510" edge="1">
                    <mxGeometry relative="1" as="geometry"/>
                </mxCell>
                <mxCell id="610" value="firstname" style="ellipse;whiteSpace=wrap;html=1;" parent="1" vertex="1">
                    <mxGeometry x="-1060" y="1310" width="90" height="50" as="geometry"/>
                </mxCell>
                <mxCell id="614" value="" style="edgeStyle=none;html=1;elbow=vertical;" parent="1" source="611" target="510" edge="1">
                    <mxGeometry relative="1" as="geometry"/>
                </mxCell>
                <mxCell id="611" value="lastname" style="ellipse;whiteSpace=wrap;html=1;" parent="1" vertex="1">
                    <mxGeometry x="-920" y="1320" width="90" height="50" as="geometry"/>
                </mxCell>
                <mxCell id="613" value="" style="edgeStyle=none;html=1;elbow=vertical;" parent="1" source="612" target="538" edge="1">
                    <mxGeometry relative="1" as="geometry"/>
                </mxCell>
                <mxCell id="612" value="name" style="ellipse;whiteSpace=wrap;html=1;" parent="1" vertex="1">
                    <mxGeometry x="-360" y="1360" width="90" height="50" as="geometry"/>
                </mxCell>
                <mxCell id="618" style="edgeStyle=none;html=1;elbow=vertical;" parent="1" source="616" target="502" edge="1">
                    <mxGeometry relative="1" as="geometry"/>
                </mxCell>
                <mxCell id="616" value="firstname&lt;span style=&quot;color: rgba(0, 0, 0, 0); font-family: monospace; font-size: 0px; text-align: start;&quot;&gt;%3CmxGraphModel%3E%3Croot%3E%3CmxCell%20id%3D%220%22%2F%3E%3CmxCell%20id%3D%221%22%20parent%3D%220%22%2F%3E%3CmxCell%20id%3D%222%22%20value%3D%22comment%22%20style%3D%22ellipse%3BwhiteSpace%3Dwrap%3Bhtml%3D1%3B%22%20vertex%3D%221%22%20parent%3D%221%22%3E%3CmxGeometry%20x%3D%22-500%22%20y%3D%22682%22%20width%3D%2285%22%20height%3D%2255%22%20as%3D%22geometry%22%2F%3E%3C%2FmxCell%3E%3C%2Froot%3E%3C%2FmxGraphModel%3E&lt;/span&gt;&lt;span style=&quot;color: rgba(0, 0, 0, 0); font-family: monospace; font-size: 0px; text-align: start;&quot;&gt;%3CmxGraphModel%3E%3Croot%3E%3CmxCell%20id%3D%220%22%2F%3E%3CmxCell%20id%3D%221%22%20parent%3D%220%22%2F%3E%3CmxCell%20id%3D%222%22%20value%3D%22comment%22%20style%3D%22ellipse%3BwhiteSpace%3Dwrap%3Bhtml%3D1%3B%22%20vertex%3D%221%22%20parent%3D%221%22%3E%3CmxGeometry%20x%3D%22-500%22%20y%3D%22682%22%20width%3D%2285%22%20height%3D%2255%22%20as%3D%22geometry%22%2F%3E%3C%2FmxCell%3E%3C%2Froot%3E%3C%2FmxGraphModel%3E&lt;/span&gt;" style="ellipse;whiteSpace=wrap;html=1;" parent="1" vertex="1">
                    <mxGeometry x="-390" y="465" width="85" height="55" as="geometry"/>
                </mxCell>
                <mxCell id="619" style="edgeStyle=none;html=1;elbow=vertical;" parent="1" source="617" target="502" edge="1">
                    <mxGeometry relative="1" as="geometry"/>
                </mxCell>
                <mxCell id="617" value="lastname" style="ellipse;whiteSpace=wrap;html=1;" parent="1" vertex="1">
                    <mxGeometry x="-277.5" y="472.5" width="85" height="55" as="geometry"/>
                </mxCell>
                <mxCell id="624" style="edgeStyle=none;html=1;" parent="1" source="623" target="382" edge="1">
                    <mxGeometry relative="1" as="geometry"/>
                </mxCell>
                <mxCell id="623" value="name" style="ellipse;whiteSpace=wrap;html=1;" parent="1" vertex="1">
                    <mxGeometry x="-1578" y="455" width="100" height="50" as="geometry"/>
                </mxCell>
                <mxCell id="627" value="Drinks" style="rounded=0;whiteSpace=wrap;html=1;" parent="1" vertex="1">
                    <mxGeometry x="-1710" y="1920" width="120" height="60" as="geometry"/>
                </mxCell>
                <mxCell id="628" value="carbonated" style="rounded=0;whiteSpace=wrap;html=1;" parent="1" vertex="1">
                    <mxGeometry x="-1933" y="1920" width="120" height="60" as="geometry"/>
                </mxCell>
            </root>
        </mxGraphModel>
    </diagram>
</mxfile>